<svg width="21" height="20" viewBox="0 0 21 20" fill="none" xmlns="http://www.w3.org/2000/svg">
<path d="M21 4.28566C21 3.5279 20.6839 2.80117 20.1213 2.26535C19.5587 1.72953 18.7956 1.42851 18 1.42851H17.25V0.734312C17.25 0.349936 16.9397 0.0200242 16.5361 0.000827672C16.4347 -0.00382556 16.3333 0.0111778 16.2382 0.0449286C16.1431 0.0786795 16.0561 0.130475 15.9826 0.197177C15.9091 0.263879 15.8506 0.344098 15.8106 0.432974C15.7706 0.52185 15.75 0.617532 15.75 0.714223V1.42851H5.25V0.734312C5.25 0.349936 4.93969 0.0200242 4.53609 0.000827672C4.43469 -0.00382556 4.33334 0.0111778 4.2382 0.0449286C4.14307 0.0786795 4.05611 0.130475 3.98261 0.197177C3.90911 0.263879 3.8506 0.344098 3.81062 0.432974C3.77063 0.52185 3.75001 0.617532 3.75 0.714223V1.42851H3C2.20435 1.42851 1.44129 1.72953 0.87868 2.26535C0.316071 2.80117 0 3.5279 0 4.28566V4.82138C0 4.86874 0.0197544 4.91416 0.0549175 4.94765C0.0900806 4.98114 0.137772 4.99995 0.1875 4.99995H20.8125C20.8622 4.99995 20.9099 4.98114 20.9451 4.94765C20.9802 4.91416 21 4.86874 21 4.82138V4.28566ZM0 17.1428C0 17.9006 0.316071 18.6273 0.87868 19.1632C1.44129 19.699 2.20435 20 3 20H18C18.7956 20 19.5587 19.699 20.1213 19.1632C20.6839 18.6273 21 17.9006 21 17.1428V6.56246C21 6.52694 20.9852 6.49287 20.9588 6.46775C20.9324 6.44264 20.8967 6.42853 20.8594 6.42853H0.140625C0.103329 6.42853 0.0675605 6.44264 0.0411882 6.46775C0.0148159 6.49287 0 6.52694 0 6.56246V17.1428ZM16.125 7.8571C16.3475 7.8571 16.565 7.91994 16.75 8.03767C16.935 8.1554 17.0792 8.32274 17.1644 8.51852C17.2495 8.71429 17.2718 8.92972 17.2284 9.13756C17.185 9.3454 17.0778 9.53631 16.9205 9.68615C16.7632 9.83599 16.5627 9.93804 16.3445 9.97938C16.1262 10.0207 15.9 9.9995 15.6945 9.91841C15.4889 9.83732 15.3132 9.69999 15.1896 9.52379C15.066 9.34759 15 9.14044 15 8.92854C15 8.64437 15.1185 8.37185 15.3295 8.17092C15.5405 7.96999 15.8266 7.8571 16.125 7.8571ZM16.125 11.4285C16.3475 11.4285 16.565 11.4914 16.75 11.6091C16.935 11.7268 17.0792 11.8942 17.1644 12.09C17.2495 12.2857 17.2718 12.5012 17.2284 12.709C17.185 12.9168 17.0778 13.1077 16.9205 13.2576C16.7632 13.4074 16.5627 13.5095 16.3445 13.5508C16.1262 13.5922 15.9 13.5709 15.6945 13.4898C15.4889 13.4088 15.3132 13.2714 15.1896 13.0952C15.066 12.919 15 12.7119 15 12.5C15 12.2158 15.1185 11.9433 15.3295 11.7424C15.5405 11.5414 15.8266 11.4285 16.125 11.4285ZM12.375 7.8571C12.5975 7.8571 12.815 7.91994 13 8.03767C13.185 8.1554 13.3292 8.32274 13.4144 8.51852C13.4995 8.71429 13.5218 8.92972 13.4784 9.13756C13.435 9.3454 13.3278 9.53631 13.1705 9.68615C13.0132 9.83599 12.8127 9.93804 12.5945 9.97938C12.3762 10.0207 12.15 9.9995 11.9445 9.91841C11.7389 9.83732 11.5632 9.69999 11.4396 9.52379C11.316 9.34759 11.25 9.14044 11.25 8.92854C11.25 8.64437 11.3685 8.37185 11.5795 8.17092C11.7905 7.96999 12.0766 7.8571 12.375 7.8571ZM12.375 11.4285C12.5975 11.4285 12.815 11.4914 13 11.6091C13.185 11.7268 13.3292 11.8942 13.4144 12.09C13.4995 12.2857 13.5218 12.5012 13.4784 12.709C13.435 12.9168 13.3278 13.1077 13.1705 13.2576C13.0132 13.4074 12.8127 13.5095 12.5945 13.5508C12.3762 13.5922 12.15 13.5709 11.9445 13.4898C11.7389 13.4088 11.5632 13.2714 11.4396 13.0952C11.316 12.919 11.25 12.7119 11.25 12.5C11.25 12.2158 11.3685 11.9433 11.5795 11.7424C11.7905 11.5414 12.0766 11.4285 12.375 11.4285ZM12.375 15C12.5975 15 12.815 15.0628 13 15.1806C13.185 15.2983 13.3292 15.4656 13.4144 15.6614C13.4995 15.8572 13.5218 16.0726 13.4784 16.2804C13.435 16.4883 13.3278 16.6792 13.1705 16.829C13.0132 16.9789 12.8127 17.0809 12.5945 17.1223C12.3762 17.1636 12.15 17.1424 11.9445 17.0613C11.7389 16.9802 11.5632 16.8429 11.4396 16.6667C11.316 16.4905 11.25 16.2833 11.25 16.0714C11.25 15.7873 11.3685 15.5147 11.5795 15.3138C11.7905 15.1129 12.0766 15 12.375 15ZM8.625 11.4285C8.8475 11.4285 9.06501 11.4914 9.25002 11.6091C9.43502 11.7268 9.57922 11.8942 9.66436 12.09C9.74951 12.2857 9.77179 12.5012 9.72838 12.709C9.68498 12.9168 9.57783 13.1077 9.4205 13.2576C9.26316 13.4074 9.06271 13.5095 8.84448 13.5508C8.62625 13.5922 8.40005 13.5709 8.19448 13.4898C7.98891 13.4088 7.81321 13.2714 7.6896 13.0952C7.56598 12.919 7.5 12.7119 7.5 12.5C7.5 12.2158 7.61853 11.9433 7.8295 11.7424C8.04048 11.5414 8.32663 11.4285 8.625 11.4285ZM8.625 15C8.8475 15 9.06501 15.0628 9.25002 15.1806C9.43502 15.2983 9.57922 15.4656 9.66436 15.6614C9.74951 15.8572 9.77179 16.0726 9.72838 16.2804C9.68498 16.4883 9.57783 16.6792 9.4205 16.829C9.26316 16.9789 9.06271 17.0809 8.84448 17.1223C8.62625 17.1636 8.40005 17.1424 8.19448 17.0613C7.98891 16.9802 7.81321 16.8429 7.6896 16.6667C7.56598 16.4905 7.5 16.2833 7.5 16.0714C7.5 15.7873 7.61853 15.5147 7.8295 15.3138C8.04048 15.1129 8.32663 15 8.625 15ZM4.875 11.4285C5.0975 11.4285 5.31501 11.4914 5.50002 11.6091C5.68502 11.7268 5.82922 11.8942 5.91436 12.09C5.99951 12.2857 6.02179 12.5012 5.97838 12.709C5.93498 12.9168 5.82783 13.1077 5.6705 13.2576C5.51316 13.4074 5.31271 13.5095 5.09448 13.5508C4.87625 13.5922 4.65005 13.5709 4.44448 13.4898C4.23891 13.4088 4.06321 13.2714 3.9396 13.0952C3.81598 12.919 3.75 12.7119 3.75 12.5C3.75 12.2158 3.86853 11.9433 4.0795 11.7424C4.29048 11.5414 4.57663 11.4285 4.875 11.4285ZM4.875 15C5.0975 15 5.31501 15.0628 5.50002 15.1806C5.68502 15.2983 5.82922 15.4656 5.91436 15.6614C5.99951 15.8572 6.02179 16.0726 5.97838 16.2804C5.93498 16.4883 5.82783 16.6792 5.6705 16.829C5.51316 16.9789 5.31271 17.0809 5.09448 17.1223C4.87625 17.1636 4.65005 17.1424 4.44448 17.0613C4.23891 16.9802 4.06321 16.8429 3.9396 16.6667C3.81598 16.4905 3.75 16.2833 3.75 16.0714C3.75 15.7873 3.86853 15.5147 4.0795 15.3138C4.29048 15.1129 4.57663 15 4.875 15Z" fill="#766F6F"/>
</svg>
