<svg width="161" height="27" viewBox="0 0 161 27" fill="none" xmlns="http://www.w3.org/2000/svg">
<path d="M20.5 26H17.224L4.048 6.02V26H0.772V0.872H4.048L17.224 20.816V0.872H20.5V26ZM37.4605 26.252C35.1325 26.252 33.0085 25.712 31.0885 24.632C29.1685 23.528 27.6445 22.004 26.5165 20.06C25.4125 18.092 24.8605 15.884 24.8605 13.436C24.8605 10.988 25.4125 8.792 26.5165 6.848C27.6445 4.88 29.1685 3.356 31.0885 2.276C33.0085 1.172 35.1325 0.619998 37.4605 0.619998C39.8125 0.619998 41.9485 1.172 43.8685 2.276C45.7885 3.356 47.3005 4.868 48.4045 6.812C49.5085 8.756 50.0605 10.964 50.0605 13.436C50.0605 15.908 49.5085 18.116 48.4045 20.06C47.3005 22.004 45.7885 23.528 43.8685 24.632C41.9485 25.712 39.8125 26.252 37.4605 26.252ZM37.4605 23.408C39.2125 23.408 40.7845 23 42.1765 22.184C43.5925 21.368 44.6965 20.204 45.4885 18.692C46.3045 17.18 46.7125 15.428 46.7125 13.436C46.7125 11.42 46.3045 9.668 45.4885 8.18C44.6965 6.668 43.6045 5.504 42.2125 4.688C40.8205 3.872 39.2365 3.464 37.4605 3.464C35.6845 3.464 34.1005 3.872 32.7085 4.688C31.3165 5.504 30.2125 6.668 29.3965 8.18C28.6045 9.668 28.2085 11.42 28.2085 13.436C28.2085 15.428 28.6045 17.18 29.3965 18.692C30.2125 20.204 31.3165 21.368 32.7085 22.184C34.1245 23 35.7085 23.408 37.4605 23.408ZM57.6613 23.336H66.4453V26H54.3853V0.907999H57.6613V23.336ZM84.7563 20.42H73.8123L71.7963 26H68.3403L77.4123 1.052H81.1923L90.2283 26H86.7723L84.7563 20.42ZM83.8203 17.756L79.2843 5.084L74.7483 17.756H83.8203ZM113.91 26H110.634L97.4582 6.02V26H94.1822V0.872H97.4582L110.634 20.816V0.872H113.91V26ZM118.271 13.436C118.271 10.988 118.823 8.792 119.927 6.848C121.031 4.88 122.531 3.344 124.427 2.24C126.347 1.136 128.471 0.583999 130.799 0.583999C133.535 0.583999 135.923 1.244 137.963 2.564C140.003 3.884 141.491 5.756 142.427 8.18H138.503C137.807 6.668 136.799 5.504 135.479 4.688C134.183 3.872 132.623 3.464 130.799 3.464C129.047 3.464 127.475 3.872 126.083 4.688C124.691 5.504 123.599 6.668 122.807 8.18C122.015 9.668 121.619 11.42 121.619 13.436C121.619 15.428 122.015 17.18 122.807 18.692C123.599 20.18 124.691 21.332 126.083 22.148C127.475 22.964 129.047 23.372 130.799 23.372C132.623 23.372 134.183 22.976 135.479 22.184C136.799 21.368 137.807 20.204 138.503 18.692H142.427C141.491 21.092 140.003 22.952 137.963 24.272C135.923 25.568 133.535 26.216 130.799 26.216C128.471 26.216 126.347 25.676 124.427 24.596C122.531 23.492 121.031 21.968 119.927 20.024C118.823 18.08 118.271 15.884 118.271 13.436ZM150.579 3.572V11.96H159.723V14.66H150.579V23.3H160.803V26H147.303V0.872H160.803V3.572H150.579Z" fill="black"/>
</svg>
