<svg width="21" height="21" viewBox="0 0 21 21" fill="none" xmlns="http://www.w3.org/2000/svg">
<path d="M10.5 18.9C12.7278 18.9 14.8644 18.015 16.4397 16.4397C18.015 14.8644 18.9 12.7278 18.9 10.5C18.9 8.27218 18.015 6.13561 16.4397 4.5603C14.8644 2.985 12.7278 2.1 10.5 2.1C8.27218 2.1 6.13561 2.985 4.5603 4.5603C2.985 6.13561 2.1 8.27218 2.1 10.5C2.1 12.7278 2.985 14.8644 4.5603 16.4397C6.13561 18.015 8.27218 18.9 10.5 18.9ZM10.5 0C11.8789 0 13.2443 0.271591 14.5182 0.799265C15.7921 1.32694 16.9496 2.10036 17.9246 3.07538C18.8996 4.05039 19.6731 5.20791 20.2007 6.48182C20.7284 7.75574 21 9.12112 21 10.5C21 13.2848 19.8938 15.9555 17.9246 17.9246C15.9555 19.8938 13.2848 21 10.5 21C4.6935 21 0 16.275 0 10.5C0 7.71523 1.10625 5.04451 3.07538 3.07538C5.04451 1.10625 7.71523 0 10.5 0ZM11.025 5.25V10.7625L15.75 13.566L14.9625 14.8575L9.45 11.55V5.25H11.025Z" fill="#766F6F"/>
</svg>
